<mxfile host="app.diagrams.net" modified="2022-11-28T10:38:57.275Z" agent="5.0 (X11)" etag="uELmB3JS7oVO5QJdVr8f" version="20.6.0" type="github">
  <diagram id="C5RBs43oDa-KdzZeNtuy" name="Global">
    <mxGraphModel dx="2249" dy="704" grid="1" gridSize="10" guides="1" tooltips="1" connect="1" arrows="1" fold="1" page="1" pageScale="1" pageWidth="827" pageHeight="1169" math="0" shadow="0">
      <root>
        <mxCell id="WIyWlLk6GJQsqaUBKTNV-0" />
        <mxCell id="WIyWlLk6GJQsqaUBKTNV-1" parent="WIyWlLk6GJQsqaUBKTNV-0" />
        <mxCell id="hvNbq5Vk60gLkzwOlXV8-3" style="edgeStyle=orthogonalEdgeStyle;rounded=0;orthogonalLoop=1;jettySize=auto;html=1;exitX=0.25;exitY=1;exitDx=0;exitDy=0;entryX=0.5;entryY=0;entryDx=0;entryDy=0;" edge="1" parent="WIyWlLk6GJQsqaUBKTNV-1" source="hvNbq5Vk60gLkzwOlXV8-0" target="cibl1_0ughwrqMuKYPl9-5">
          <mxGeometry relative="1" as="geometry">
            <mxPoint x="130" y="300" as="targetPoint" />
          </mxGeometry>
        </mxCell>
        <mxCell id="hvNbq5Vk60gLkzwOlXV8-4" style="edgeStyle=orthogonalEdgeStyle;rounded=0;orthogonalLoop=1;jettySize=auto;html=1;exitX=0.75;exitY=1;exitDx=0;exitDy=0;entryX=0.5;entryY=0;entryDx=0;entryDy=0;" edge="1" parent="WIyWlLk6GJQsqaUBKTNV-1" source="hvNbq5Vk60gLkzwOlXV8-0" target="hvNbq5Vk60gLkzwOlXV8-6">
          <mxGeometry relative="1" as="geometry">
            <mxPoint x="710" y="290" as="targetPoint" />
          </mxGeometry>
        </mxCell>
        <mxCell id="hvNbq5Vk60gLkzwOlXV8-0" value="Cataclysm" style="swimlane;whiteSpace=wrap;html=1;" vertex="1" parent="WIyWlLk6GJQsqaUBKTNV-1">
          <mxGeometry x="314" y="30" width="200" height="110" as="geometry" />
        </mxCell>
        <mxCell id="hvNbq5Vk60gLkzwOlXV8-2" value="&lt;div align=&quot;left&quot;&gt;main() :public&lt;/div&gt;" style="text;html=1;strokeColor=none;fillColor=none;align=left;verticalAlign=middle;whiteSpace=wrap;rounded=0;" vertex="1" parent="hvNbq5Vk60gLkzwOlXV8-0">
          <mxGeometry x="6" y="70" width="194" height="30" as="geometry" />
        </mxCell>
        <mxCell id="hvNbq5Vk60gLkzwOlXV8-1" value="" style="endArrow=none;html=1;rounded=0;entryX=0;entryY=0.5;entryDx=0;entryDy=0;exitX=1;exitY=0.5;exitDx=0;exitDy=0;" edge="1" parent="WIyWlLk6GJQsqaUBKTNV-1" source="hvNbq5Vk60gLkzwOlXV8-0" target="hvNbq5Vk60gLkzwOlXV8-0">
          <mxGeometry width="50" height="50" relative="1" as="geometry">
            <mxPoint x="390" y="240" as="sourcePoint" />
            <mxPoint x="440" y="190" as="targetPoint" />
          </mxGeometry>
        </mxCell>
        <mxCell id="DM7Bust_WF8hApARGOz4-5" style="edgeStyle=orthogonalEdgeStyle;rounded=0;orthogonalLoop=1;jettySize=auto;html=1;exitX=0.5;exitY=1;exitDx=0;exitDy=0;" edge="1" parent="WIyWlLk6GJQsqaUBKTNV-1" source="hvNbq5Vk60gLkzwOlXV8-6" target="DM7Bust_WF8hApARGOz4-2">
          <mxGeometry relative="1" as="geometry" />
        </mxCell>
        <mxCell id="DM7Bust_WF8hApARGOz4-6" style="edgeStyle=orthogonalEdgeStyle;rounded=0;orthogonalLoop=1;jettySize=auto;html=1;exitX=0.25;exitY=1;exitDx=0;exitDy=0;entryX=0.5;entryY=0;entryDx=0;entryDy=0;" edge="1" parent="WIyWlLk6GJQsqaUBKTNV-1" source="hvNbq5Vk60gLkzwOlXV8-6" target="DM7Bust_WF8hApARGOz4-0">
          <mxGeometry relative="1" as="geometry" />
        </mxCell>
        <mxCell id="DM7Bust_WF8hApARGOz4-7" style="edgeStyle=orthogonalEdgeStyle;rounded=0;orthogonalLoop=1;jettySize=auto;html=1;exitX=0.25;exitY=1;exitDx=0;exitDy=0;" edge="1" parent="WIyWlLk6GJQsqaUBKTNV-1" source="hvNbq5Vk60gLkzwOlXV8-6" target="DM7Bust_WF8hApARGOz4-1">
          <mxGeometry relative="1" as="geometry" />
        </mxCell>
        <mxCell id="zeMaiDPCXwtXAsI8KMX5-0" style="edgeStyle=orthogonalEdgeStyle;rounded=0;orthogonalLoop=1;jettySize=auto;html=1;exitX=0.75;exitY=1;exitDx=0;exitDy=0;entryX=0.5;entryY=0;entryDx=0;entryDy=0;" edge="1" parent="WIyWlLk6GJQsqaUBKTNV-1" source="hvNbq5Vk60gLkzwOlXV8-6" target="DM7Bust_WF8hApARGOz4-3">
          <mxGeometry relative="1" as="geometry" />
        </mxCell>
        <mxCell id="zeMaiDPCXwtXAsI8KMX5-1" style="edgeStyle=orthogonalEdgeStyle;rounded=0;orthogonalLoop=1;jettySize=auto;html=1;exitX=0.75;exitY=1;exitDx=0;exitDy=0;" edge="1" parent="WIyWlLk6GJQsqaUBKTNV-1" source="hvNbq5Vk60gLkzwOlXV8-6" target="DM7Bust_WF8hApARGOz4-4">
          <mxGeometry relative="1" as="geometry" />
        </mxCell>
        <mxCell id="hvNbq5Vk60gLkzwOlXV8-6" value="Controleur Jeu" style="swimlane;whiteSpace=wrap;html=1;" vertex="1" parent="WIyWlLk6GJQsqaUBKTNV-1">
          <mxGeometry x="844" y="300" width="200" height="200" as="geometry" />
        </mxCell>
        <mxCell id="cibl1_0ughwrqMuKYPl9-0" style="edgeStyle=orthogonalEdgeStyle;rounded=0;orthogonalLoop=1;jettySize=auto;html=1;exitX=0.25;exitY=1;exitDx=0;exitDy=0;entryX=0.5;entryY=0;entryDx=0;entryDy=0;" edge="1" parent="WIyWlLk6GJQsqaUBKTNV-1" source="cibl1_0ughwrqMuKYPl9-5" target="cibl1_0ughwrqMuKYPl9-6">
          <mxGeometry relative="1" as="geometry" />
        </mxCell>
        <mxCell id="cibl1_0ughwrqMuKYPl9-1" style="edgeStyle=orthogonalEdgeStyle;rounded=0;orthogonalLoop=1;jettySize=auto;html=1;exitX=0.25;exitY=1;exitDx=0;exitDy=0;" edge="1" parent="WIyWlLk6GJQsqaUBKTNV-1" source="cibl1_0ughwrqMuKYPl9-5" target="cibl1_0ughwrqMuKYPl9-7">
          <mxGeometry relative="1" as="geometry" />
        </mxCell>
        <mxCell id="cibl1_0ughwrqMuKYPl9-2" style="edgeStyle=orthogonalEdgeStyle;rounded=0;orthogonalLoop=1;jettySize=auto;html=1;exitX=0.5;exitY=1;exitDx=0;exitDy=0;entryX=0.5;entryY=0;entryDx=0;entryDy=0;" edge="1" parent="WIyWlLk6GJQsqaUBKTNV-1" source="cibl1_0ughwrqMuKYPl9-5" target="cibl1_0ughwrqMuKYPl9-8">
          <mxGeometry relative="1" as="geometry" />
        </mxCell>
        <mxCell id="cibl1_0ughwrqMuKYPl9-3" style="edgeStyle=orthogonalEdgeStyle;rounded=0;orthogonalLoop=1;jettySize=auto;html=1;exitX=0.75;exitY=1;exitDx=0;exitDy=0;" edge="1" parent="WIyWlLk6GJQsqaUBKTNV-1" source="cibl1_0ughwrqMuKYPl9-5" target="cibl1_0ughwrqMuKYPl9-9">
          <mxGeometry relative="1" as="geometry" />
        </mxCell>
        <mxCell id="cibl1_0ughwrqMuKYPl9-4" style="edgeStyle=orthogonalEdgeStyle;rounded=0;orthogonalLoop=1;jettySize=auto;html=1;exitX=0.75;exitY=1;exitDx=0;exitDy=0;" edge="1" parent="WIyWlLk6GJQsqaUBKTNV-1" source="cibl1_0ughwrqMuKYPl9-5" target="cibl1_0ughwrqMuKYPl9-10">
          <mxGeometry relative="1" as="geometry" />
        </mxCell>
        <mxCell id="cibl1_0ughwrqMuKYPl9-5" value="Vue Jeu" style="swimlane;whiteSpace=wrap;html=1;" vertex="1" parent="WIyWlLk6GJQsqaUBKTNV-1">
          <mxGeometry x="-280" y="320" width="200" height="200" as="geometry">
            <mxRectangle x="34" y="300" width="90" height="30" as="alternateBounds" />
          </mxGeometry>
        </mxCell>
        <mxCell id="cibl1_0ughwrqMuKYPl9-6" value="Vue joueur" style="swimlane;whiteSpace=wrap;html=1;" vertex="1" parent="WIyWlLk6GJQsqaUBKTNV-1">
          <mxGeometry x="-810" y="580" width="140" height="200" as="geometry" />
        </mxCell>
        <mxCell id="cibl1_0ughwrqMuKYPl9-7" value="Vue prédateur" style="swimlane;whiteSpace=wrap;html=1;" vertex="1" parent="WIyWlLk6GJQsqaUBKTNV-1">
          <mxGeometry x="-520" y="580" width="130" height="200" as="geometry" />
        </mxCell>
        <mxCell id="cibl1_0ughwrqMuKYPl9-8" value="Vue Animaux" style="swimlane;whiteSpace=wrap;html=1;" vertex="1" parent="WIyWlLk6GJQsqaUBKTNV-1">
          <mxGeometry x="-240" y="580" width="120" height="200" as="geometry" />
        </mxCell>
        <mxCell id="zeMaiDPCXwtXAsI8KMX5-2" style="edgeStyle=orthogonalEdgeStyle;rounded=0;orthogonalLoop=1;jettySize=auto;html=1;exitX=0.5;exitY=1;exitDx=0;exitDy=0;entryX=0.5;entryY=0;entryDx=0;entryDy=0;" edge="1" parent="WIyWlLk6GJQsqaUBKTNV-1" source="cibl1_0ughwrqMuKYPl9-9" target="zeMaiDPCXwtXAsI8KMX5-3">
          <mxGeometry relative="1" as="geometry">
            <mxPoint x="200" y="880" as="targetPoint" />
          </mxGeometry>
        </mxCell>
        <mxCell id="zeMaiDPCXwtXAsI8KMX5-5" style="edgeStyle=orthogonalEdgeStyle;rounded=0;orthogonalLoop=1;jettySize=auto;html=1;exitX=0.5;exitY=1;exitDx=0;exitDy=0;" edge="1" parent="WIyWlLk6GJQsqaUBKTNV-1" source="cibl1_0ughwrqMuKYPl9-9" target="zeMaiDPCXwtXAsI8KMX5-4">
          <mxGeometry relative="1" as="geometry" />
        </mxCell>
        <mxCell id="cibl1_0ughwrqMuKYPl9-9" value="Vue consommables" style="swimlane;whiteSpace=wrap;html=1;" vertex="1" parent="WIyWlLk6GJQsqaUBKTNV-1">
          <mxGeometry x="50" y="580" width="140" height="200" as="geometry" />
        </mxCell>
        <mxCell id="cibl1_0ughwrqMuKYPl9-10" value="Vue cachettes" style="swimlane;whiteSpace=wrap;html=1;" vertex="1" parent="WIyWlLk6GJQsqaUBKTNV-1">
          <mxGeometry x="314" y="580" width="130" height="200" as="geometry" />
        </mxCell>
        <mxCell id="DM7Bust_WF8hApARGOz4-0" value="Controleur Joueur" style="swimlane;whiteSpace=wrap;html=1;" vertex="1" parent="WIyWlLk6GJQsqaUBKTNV-1">
          <mxGeometry x="540" y="580" width="140" height="200" as="geometry" />
        </mxCell>
        <mxCell id="DM7Bust_WF8hApARGOz4-1" value="Controleur prédateur" style="swimlane;whiteSpace=wrap;html=1;" vertex="1" parent="WIyWlLk6GJQsqaUBKTNV-1">
          <mxGeometry x="710" y="580" width="130" height="200" as="geometry" />
        </mxCell>
        <mxCell id="DM7Bust_WF8hApARGOz4-2" value="Controleur Animaux" style="swimlane;whiteSpace=wrap;html=1;" vertex="1" parent="WIyWlLk6GJQsqaUBKTNV-1">
          <mxGeometry x="884" y="580" width="120" height="200" as="geometry" />
        </mxCell>
        <mxCell id="DM7Bust_WF8hApARGOz4-3" value="Controleur consommables" style="swimlane;whiteSpace=wrap;html=1;startSize=23;" vertex="1" parent="WIyWlLk6GJQsqaUBKTNV-1">
          <mxGeometry x="1061" y="580" width="180" height="200" as="geometry" />
        </mxCell>
        <mxCell id="DM7Bust_WF8hApARGOz4-4" value="Controleur cachettes" style="swimlane;whiteSpace=wrap;html=1;" vertex="1" parent="WIyWlLk6GJQsqaUBKTNV-1">
          <mxGeometry x="1300" y="580" width="130" height="200" as="geometry" />
        </mxCell>
        <mxCell id="zeMaiDPCXwtXAsI8KMX5-3" value="Vue Nourriture classique" style="swimlane;whiteSpace=wrap;html=1;" vertex="1" parent="WIyWlLk6GJQsqaUBKTNV-1">
          <mxGeometry x="-40" y="860" width="150" height="200" as="geometry" />
        </mxCell>
        <mxCell id="zeMaiDPCXwtXAsI8KMX5-4" value="Vue Nourriture Halucinogène" style="swimlane;whiteSpace=wrap;html=1;" vertex="1" parent="WIyWlLk6GJQsqaUBKTNV-1">
          <mxGeometry x="130" y="860" width="170" height="200" as="geometry" />
        </mxCell>
      </root>
    </mxGraphModel>
  </diagram>
</mxfile>
